<?xml version="1.0" encoding="UTF-8"?>
<!DOCTYPE svg PUBLIC "-//W3C//DTD SVG 1.1//EN" "http://www.w3.org/Graphics/SVG/1.1/DTD/svg11.dtd">
<svg xmlns="http://www.w3.org/2000/svg" version="1.1" width="1024px" height="1024px" style="shape-rendering:geometricPrecision; text-rendering:geometricPrecision; image-rendering:optimizeQuality; fill-rule:evenodd; clip-rule:evenodd" xmlns:xlink="http://www.w3.org/1999/xlink">
<g><path style="opacity:1" fill="#010001" d="M 626.5,210.5 C 623.911,211.419 621.911,213.086 620.5,215.5C 616.544,217.788 613.211,220.788 610.5,224.5C 608.596,224.738 607.262,225.738 606.5,227.5C 604.5,228.833 602.833,230.5 601.5,232.5C 598.573,233.757 596.239,235.757 594.5,238.5C 591.599,239.792 589.266,241.792 587.5,244.5C 572.205,257.461 557.538,271.127 543.5,285.5C 542.5,285.833 541.833,286.5 541.5,287.5C 540.167,288.167 539.167,289.167 538.5,290.5C 537.5,292.167 536.167,293.5 534.5,294.5C 531.478,295.522 529.478,297.522 528.5,300.5C 525.833,301.167 524.167,302.833 523.5,305.5C 522.761,305.369 522.094,305.536 521.5,306C 517.906,309.75 514.573,313.583 511.5,317.5C 510.5,317.833 509.833,318.5 509.5,319.5C 508.833,320.833 507.833,321.833 506.5,322.5C 504.833,323.5 503.5,324.833 502.5,326.5C 502.5,327.833 501.833,328.5 500.5,328.5C 497.427,330.569 495.094,333.236 493.5,336.5C 493.5,337.167 493.167,337.5 492.5,337.5C 488.485,340.516 485.152,344.183 482.5,348.5C 473.911,356.231 466.744,364.898 461,374.5C 464.145,371.368 467.312,368.368 470.5,365.5C 476.155,361.177 481.488,356.51 486.5,351.5C 486.5,350.833 486.833,350.5 487.5,350.5C 491.572,348.792 494.905,346.126 497.5,342.5C 500.455,340.878 503.122,338.878 505.5,336.5C 507.754,335.876 509.421,334.543 510.5,332.5C 513.37,331.567 515.704,329.9 517.5,327.5C 519.434,326.89 521.101,325.89 522.5,324.5C 530.028,320.111 537.694,316.111 545.5,312.5C 557.47,308.18 569.47,304.18 581.5,300.5C 588.354,299.12 595.02,297.453 601.5,295.5C 604.727,295.324 607.727,294.657 610.5,293.5C 619.329,292.032 627.996,290.365 636.5,288.5C 647.618,286.722 658.618,285.056 669.5,283.5C 702.506,279.541 735.506,279.541 768.5,283.5C 768.833,283.5 769.167,283.5 769.5,283.5C 778.706,285.147 788.04,286.814 797.5,288.5C 804.659,290.402 811.992,292.068 819.5,293.5C 821.961,294.531 824.627,295.198 827.5,295.5C 833.312,297.456 839.312,299.123 845.5,300.5C 847.415,300.216 849.081,300.549 850.5,301.5C 854.215,303.405 858.215,304.738 862.5,305.5C 864.214,306.738 866.214,307.405 868.5,307.5C 882.228,313.02 896.228,318.02 910.5,322.5C 912.214,323.738 914.214,324.405 916.5,324.5C 918.936,325.871 921.603,326.871 924.5,327.5C 932.659,330.735 940.992,333.735 949.5,336.5C 952.254,337.946 955.254,338.946 958.5,339.5C 963.818,342.254 969.485,344.254 975.5,345.5C 975.5,346.5 975.5,347.5 975.5,348.5C 966.951,350.385 958.618,352.718 950.5,355.5C 942.611,357.385 934.945,359.718 927.5,362.5C 916.442,364.925 905.775,368.258 895.5,372.5C 895.167,372.5 894.833,372.5 894.5,372.5C 882.207,375.9 870.207,379.9 858.5,384.5C 858.167,384.5 857.833,384.5 857.5,384.5C 850.608,386.463 843.941,388.796 837.5,391.5C 833.463,392.065 829.797,393.399 826.5,395.5C 825.432,396.434 824.099,396.768 822.5,396.5C 817.748,398.193 813.081,399.86 808.5,401.5C 806.597,401.796 804.93,402.463 803.5,403.5C 794.128,406.066 785.128,409.399 776.5,413.5C 766.197,416.93 756.197,420.93 746.5,425.5C 742.203,426.655 738.203,428.321 734.5,430.5C 734.167,430.5 733.833,430.5 733.5,430.5C 719.859,436.322 706.526,442.655 693.5,449.5C 688.68,451.074 684.347,453.407 680.5,456.5C 674.511,458.491 669.177,461.491 664.5,465.5C 660.975,466.759 657.975,468.759 655.5,471.5C 652.467,473.016 649.8,475.016 647.5,477.5C 644.911,478.419 642.911,480.086 641.5,482.5C 641.5,483.167 641.167,483.5 640.5,483.5C 639.5,483.833 638.833,484.5 638.5,485.5C 637.167,486.167 636.167,487.167 635.5,488.5C 632.815,491.19 630.482,494.19 628.5,497.5C 624.436,501.947 621.102,506.947 618.5,512.5C 615.665,516.164 613.332,520.164 611.5,524.5C 606.949,531.444 602.949,538.778 599.5,546.5C 597.992,548.181 596.992,550.181 596.5,552.5C 594.654,554.03 593.654,556.03 593.5,558.5C 590.977,562.213 588.977,566.213 587.5,570.5C 583.385,577.067 580.051,584.067 577.5,591.5C 574.93,596.311 572.597,601.311 570.5,606.5C 567.588,611.894 565.255,617.561 563.5,623.5C 578.813,628.486 594.146,633.486 609.5,638.5C 620.908,642.944 632.575,646.944 644.5,650.5C 662.284,659.225 679.95,668.225 697.5,677.5C 702.059,680.947 707.059,683.613 712.5,685.5C 714.151,686.97 715.985,688.303 718,689.5C 718.617,690.449 718.451,691.282 717.5,692C 704.889,697.639 692.556,703.805 680.5,710.5C 674.816,712.897 669.149,715.397 663.5,718C 662.226,718.977 662.226,719.811 663.5,720.5C 664.809,723.778 666.642,726.778 669,729.5C 671.127,727.886 672.627,725.886 673.5,723.5C 673.5,722.833 673.833,722.5 674.5,722.5C 679.043,717.791 684.043,713.625 689.5,710C 696.251,709.386 702.917,709.886 709.5,711.5C 711.599,712.612 713.933,713.279 716.5,713.5C 717.091,714.151 717.757,714.818 718.5,715.5C 716.467,717.507 714.467,719.507 712.5,721.5C 711.71,722.401 710.71,723.068 709.5,723.5C 704.254,726.411 699.587,730.078 695.5,734.5C 695.5,734.833 695.5,735.167 695.5,735.5C 693.5,735.5 692.5,736.5 692.5,738.5C 691.094,738.973 690.427,739.973 690.5,741.5C 690.715,743.179 690.048,744.179 688.5,744.5C 687.069,745.78 686.402,747.447 686.5,749.5C 685.475,749.897 685.308,750.563 686,751.5C 690.965,755.992 696.798,758.658 703.5,759.5C 707.641,761.073 711.974,762.407 716.5,763.5C 717.855,762.812 718.855,761.812 719.5,760.5C 725.457,756.543 731.123,752.21 736.5,747.5C 739.331,746.921 741.664,745.588 743.5,743.5C 749.681,740.045 756.014,739.711 762.5,742.5C 766.635,745.069 770.968,747.403 775.5,749.5C 781.029,752.761 780.696,755.094 774.5,756.5C 772.597,756.796 770.93,757.463 769.5,758.5C 765.863,759.263 762.53,760.597 759.5,762.5C 758.791,763.404 757.791,763.737 756.5,763.5C 749.012,765.991 743.345,770.658 739.5,777.5C 735.354,784.771 737.02,790.771 744.5,795.5C 748.199,799.513 752.865,801.18 758.5,800.5C 764.823,801.04 771.156,801.873 777.5,803C 771.489,808.001 765.156,812.501 758.5,816.5C 755.443,817.633 752.443,818.633 749.5,819.5C 747.167,819.5 744.833,819.5 742.5,819.5C 737.888,818.791 733.221,817.791 728.5,816.5C 721.61,809.07 715.943,800.737 711.5,791.5C 711.34,789.847 710.674,788.514 709.5,787.5C 709.167,787.5 708.833,787.5 708.5,787.5C 706.302,787.875 704.302,788.542 702.5,789.5C 694.083,791.526 686.083,790.526 678.5,786.5C 678.5,786.167 678.5,785.833 678.5,785.5C 674.151,780.656 668.818,777.322 662.5,775.5C 661.378,774.053 659.878,773.053 658,772.5C 655.433,773.587 652.933,774.587 650.5,775.5C 647.848,775.41 645.515,776.076 643.5,777.5C 640.311,777.858 637.311,778.525 634.5,779.5C 632.735,780.461 630.735,780.795 628.5,780.5C 622.833,780.5 617.167,780.5 611.5,780.5C 610.209,780.737 609.209,780.404 608.5,779.5C 607.07,778.463 605.403,777.796 603.5,777.5C 602.486,776.326 601.153,775.66 599.5,775.5C 596.485,773.326 593.151,771.659 589.5,770.5C 589.027,769.094 588.027,768.427 586.5,768.5C 583.76,766.44 580.76,764.774 577.5,763.5C 575.178,761.336 572.511,759.669 569.5,758.5C 569.027,757.094 568.027,756.427 566.5,756.5C 564.025,753.759 561.025,751.759 557.5,750.5C 555.353,748.53 553.02,746.697 550.5,745C 546.179,744.501 541.846,744.334 537.5,744.5C 520.627,743.026 503.627,741.359 486.5,739.5C 468.093,736.377 449.759,732.377 431.5,727.5C 421.309,723.702 411.309,719.202 401.5,714C 390.444,707.145 379.444,700.311 368.5,693.5C 362.229,688.025 355.563,683.025 348.5,678.5C 344.798,674.797 340.798,671.463 336.5,668.5C 321.698,654.372 308.031,639.372 295.5,623.5C 293.196,618.515 290.196,614.182 286.5,610.5C 279.888,613.469 273.555,616.802 267.5,620.5C 261.674,622.914 256.008,625.581 250.5,628.5C 232.942,636.612 215.609,645.279 198.5,654.5C 196.181,654.992 194.181,655.992 192.5,657.5C 176.519,664.323 160.853,671.989 145.5,680.5C 143.181,680.992 141.181,681.992 139.5,683.5C 137.181,683.992 135.181,684.992 133.5,686.5C 118.038,693.228 102.705,700.562 87.5,708.5C 86.479,707.998 86.3123,707.332 87,706.5C 88.7073,704.963 90.2073,703.296 91.5,701.5C 94.0892,700.581 96.0892,698.914 97.5,696.5C 114.477,682.854 130.477,668.187 145.5,652.5C 152.64,644.233 159.306,635.566 165.5,626.5C 179.225,610.049 192.225,593.049 204.5,575.5C 206.633,573.909 208.299,571.909 209.5,569.5C 213.268,562.912 211.268,559.912 203.5,560.5C 194.49,561.679 186.49,565.013 179.5,570.5C 175.827,572 172.494,574 169.5,576.5C 165.827,578 162.494,580 159.5,582.5C 156.489,583.669 153.822,585.336 151.5,587.5C 144.652,590.753 138.319,594.753 132.5,599.5C 124.173,603.981 116.506,609.481 109.5,616C 97.9614,628.036 86.628,640.203 75.5,652.5C 69.4691,658.53 63.8024,664.863 58.5,671.5C 55.5099,673.99 52.6765,676.657 50,679.5C 49.9525,676.122 50.4525,672.789 51.5,669.5C 53.9632,665.557 55.6299,661.224 56.5,656.5C 61.071,646.129 65.071,635.463 68.5,624.5C 73.0117,615.467 77.0117,606.134 80.5,596.5C 93.7897,570.592 109.123,545.926 126.5,522.5C 143.5,500.833 162.833,481.5 184.5,464.5C 184.5,463.833 184.833,463.5 185.5,463.5C 191.715,459.891 197.382,455.558 202.5,450.5C 212.423,444.238 221.756,437.238 230.5,429.5C 244.363,419.641 258.196,409.641 272,399.5C 275.742,390.102 279.575,380.769 283.5,371.5C 289.165,360.836 294.832,350.17 300.5,339.5C 303.08,336.011 305.413,332.344 307.5,328.5C 309.262,327.738 310.262,326.404 310.5,324.5C 311.5,324.167 312.167,323.5 312.5,322.5C 316.833,318.833 320.833,314.833 324.5,310.5C 325.833,309.833 326.833,308.833 327.5,307.5C 335.483,301.514 343.149,295.181 350.5,288.5C 353.117,287.214 355.45,285.547 357.5,283.5C 360.473,281.853 363.14,279.853 365.5,277.5C 371.189,274.324 376.523,270.658 381.5,266.5C 388.01,262.747 394.344,258.747 400.5,254.5C 408.332,250.751 415.999,246.751 423.5,242.5C 427.593,241.618 431.26,239.951 434.5,237.5C 434.833,237.5 435.167,237.5 435.5,237.5C 437.153,237.34 438.486,236.674 439.5,235.5C 443.116,234.686 446.449,233.352 449.5,231.5C 450.209,230.596 451.209,230.263 452.5,230.5C 457.438,229.354 462.105,227.687 466.5,225.5C 481.57,221.318 496.57,217.318 511.5,213.5C 525.592,211.452 539.592,209.786 553.5,208.5C 554.833,208.5 556.167,208.5 557.5,208.5C 578.66,207.131 599.826,205.797 621,204.5C 624.5,204.833 628,205.167 631.5,205.5C 629.479,206.855 627.812,208.521 626.5,210.5 Z M 686.5,709.5 C 681.799,713.201 677.799,717.534 674.5,722.5C 673.833,722.5 673.5,722.833 673.5,723.5C 671.871,724.625 670.371,725.959 669,727.5C 667.629,724.734 665.796,722.401 663.5,720.5C 669.167,717.167 674.833,713.833 680.5,710.5C 682.5,710.167 684.5,709.833 686.5,709.5 Z"/></g>
<g><path style="opacity:0.106" fill="#a9561b" d="M 626.5,210.5 C 627.812,208.521 629.479,206.855 631.5,205.5C 628,205.167 624.5,204.833 621,204.5C 599.826,205.797 578.66,207.131 557.5,208.5C 569.076,207.33 580.743,205.83 592.5,204C 605.833,203.333 619.167,203.333 632.5,204C 633.451,204.718 633.617,205.551 633,206.5C 630.931,208.085 628.764,209.419 626.5,210.5 Z"/></g>
<g><path style="opacity:0.088" fill="#a8561c" d="M 553.5,208.5 C 539.592,209.786 525.592,211.452 511.5,213.5C 515.619,212.005 519.952,210.839 524.5,210C 534.15,209.123 543.817,208.623 553.5,208.5 Z"/></g>
<g><path style="opacity:0.012" fill="#ac5415" d="M 626.5,210.5 C 625.135,212.86 623.135,214.527 620.5,215.5C 621.911,213.086 623.911,211.419 626.5,210.5 Z"/></g>
<g><path style="opacity:0.176" fill="#a45b1a" d="M 511.5,213.5 C 496.57,217.318 481.57,221.318 466.5,225.5C 468.598,224.065 470.931,222.898 473.5,222C 482.026,220.12 490.359,217.787 498.5,215C 502.813,214.265 507.147,213.765 511.5,213.5 Z"/></g>
<g><path style="opacity:0.024" fill="#b1541a" d="M 620.5,215.5 C 617.815,219.183 614.482,222.183 610.5,224.5C 613.211,220.788 616.544,217.788 620.5,215.5 Z"/></g>
<g><path style="opacity:0.027" fill="#a85622" d="M 610.5,224.5 C 609.738,226.262 608.404,227.262 606.5,227.5C 607.262,225.738 608.596,224.738 610.5,224.5 Z"/></g>
<g><path style="opacity:0.004" fill="#cc4d0f" d="M 606.5,227.5 C 605.833,230.167 604.167,231.833 601.5,232.5C 602.833,230.5 604.5,228.833 606.5,227.5 Z"/></g>
<g><path style="opacity:0.067" fill="#a9571e" d="M 466.5,225.5 C 462.105,227.687 457.438,229.354 452.5,230.5C 456.454,227.329 461.121,225.662 466.5,225.5 Z"/></g>
<g><path style="opacity:0.084" fill="#a25e1c" d="M 449.5,231.5 C 446.449,233.352 443.116,234.686 439.5,235.5C 442.309,233.103 445.642,231.77 449.5,231.5 Z"/></g>
<g><path style="opacity:0.129" fill="#a25822" d="M 439.5,235.5 C 438.486,236.674 437.153,237.34 435.5,237.5C 436.287,235.896 437.62,235.229 439.5,235.5 Z"/></g>
<g><path style="opacity:0.012" fill="#b0541b" d="M 601.5,232.5 C 599.761,235.243 597.427,237.243 594.5,238.5C 596.239,235.757 598.573,233.757 601.5,232.5 Z"/></g>
<g><path style="opacity:0.173" fill="#ab571d" d="M 434.5,237.5 C 431.26,239.951 427.593,241.618 423.5,242.5C 426.476,239.574 430.142,237.908 434.5,237.5 Z"/></g>
<g><path style="opacity:0.039" fill="#b25617" d="M 594.5,238.5 C 593.401,241.932 591.067,243.932 587.5,244.5C 589.266,241.792 591.599,239.792 594.5,238.5 Z"/></g>
<g><path style="opacity:0.098" fill="#ad551a" d="M 423.5,242.5 C 415.999,246.751 408.332,250.751 400.5,254.5C 407.445,249.193 415.112,245.193 423.5,242.5 Z"/></g>
<g><path style="opacity:0.157" fill="#b1521b" d="M 400.5,254.5 C 394.344,258.747 388.01,262.747 381.5,266.5C 387.014,261.241 393.347,257.241 400.5,254.5 Z"/></g>
<g><path style="opacity:0.016" fill="#b35516" d="M 587.5,244.5 C 586.797,246.716 585.464,248.549 583.5,250C 570.276,262.064 556.942,273.897 543.5,285.5C 557.538,271.127 572.205,257.461 587.5,244.5 Z"/></g>
<g><path style="opacity:0.161" fill="#a8571b" d="M 381.5,266.5 C 376.523,270.658 371.189,274.324 365.5,277.5C 370.129,272.849 375.463,269.182 381.5,266.5 Z"/></g>
<g><path style="opacity:0.035" fill="#a85a1a" d="M 768.5,283.5 C 735.506,279.541 702.506,279.541 669.5,283.5C 676.249,281.769 683.249,280.602 690.5,280C 715.91,277.804 741.244,278.471 766.5,282C 767.416,282.278 768.082,282.778 768.5,283.5 Z"/></g>
<g><path style="opacity:0.114" fill="#b35118" d="M 365.5,277.5 C 363.14,279.853 360.473,281.853 357.5,283.5C 359.268,280.41 361.935,278.41 365.5,277.5 Z"/></g>
<g><path style="opacity:0.031" fill="#a7591d" d="M 769.5,283.5 C 779.314,283.325 788.647,284.992 797.5,288.5C 788.04,286.814 778.706,285.147 769.5,283.5 Z"/></g>
<g><path style="opacity:0.004" fill="#d4410f" d="M 543.5,285.5 C 543.5,286.833 542.833,287.5 541.5,287.5C 541.833,286.5 542.5,285.833 543.5,285.5 Z"/></g>
<g><path style="opacity:0.067" fill="#a55a1d" d="M 669.5,283.5 C 658.618,285.056 647.618,286.722 636.5,288.5C 647.058,284.968 658.058,283.301 669.5,283.5 Z"/></g>
<g><path style="opacity:0.165" fill="#ae511c" d="M 357.5,283.5 C 355.45,285.547 353.117,287.214 350.5,288.5C 351.992,285.677 354.326,284.01 357.5,283.5 Z"/></g>
<g><path style="opacity:0.106" fill="#ae541c" d="M 797.5,288.5 C 805.398,288.473 812.732,290.139 819.5,293.5C 811.992,292.068 804.659,290.402 797.5,288.5 Z"/></g>
<g><path style="opacity:0.004" fill="#db3f10" d="M 541.5,287.5 C 541.5,289.5 540.5,290.5 538.5,290.5C 539.167,289.167 540.167,288.167 541.5,287.5 Z"/></g>
<g><path style="opacity:0.09" fill="#ab5817" d="M 636.5,288.5 C 627.996,290.365 619.329,292.032 610.5,293.5C 610.611,292.883 610.944,292.383 611.5,292C 619.702,289.933 628.035,288.766 636.5,288.5 Z"/></g>
<g><path style="opacity:0.114" fill="#ae5319" d="M 819.5,293.5 C 822.553,293.111 825.22,293.777 827.5,295.5C 824.627,295.198 821.961,294.531 819.5,293.5 Z"/></g>
<g><path style="opacity:0.135" fill="#af551e" d="M 610.5,293.5 C 607.727,294.657 604.727,295.324 601.5,295.5C 604.123,293.735 607.123,293.068 610.5,293.5 Z"/></g>
<g><path style="opacity:0.118" fill="#a6591f" d="M 827.5,295.5 C 834.074,295.64 840.074,297.306 845.5,300.5C 839.312,299.123 833.312,297.456 827.5,295.5 Z"/></g>
<g><path style="opacity:0.031" fill="#ad551b" d="M 534.5,294.5 C 532.882,296.785 530.882,298.785 528.5,300.5C 529.478,297.522 531.478,295.522 534.5,294.5 Z"/></g>
<g><path style="opacity:0.157" fill="#a7571c" d="M 350.5,288.5 C 343.149,295.181 335.483,301.514 327.5,307.5C 334.243,300.094 341.91,293.761 350.5,288.5 Z"/></g>
<g><path style="opacity:0.157" fill="#ab551b" d="M 601.5,295.5 C 595.02,297.453 588.354,299.12 581.5,300.5C 587.549,297.082 594.216,295.415 601.5,295.5 Z"/></g>
<g><path style="opacity:0.035" fill="#a7541e" d="M 528.5,300.5 C 527.167,302.5 525.5,304.167 523.5,305.5C 524.167,302.833 525.833,301.167 528.5,300.5 Z"/></g>
<g><path style="opacity:0.035" fill="#ac561b" d="M 581.5,300.5 C 569.47,304.18 557.47,308.18 545.5,312.5C 546.737,310.903 548.404,309.737 550.5,309C 560.558,305.069 570.892,302.236 581.5,300.5 Z"/></g>
<g><path style="opacity:0.157" fill="#b05617" d="M 850.5,301.5 C 855.079,301.47 859.079,302.804 862.5,305.5C 858.215,304.738 854.215,303.405 850.5,301.5 Z"/></g>
<g><path style="opacity:0.137" fill="#b55217" d="M 862.5,305.5 C 864.898,305.259 866.898,305.926 868.5,307.5C 866.214,307.405 864.214,306.738 862.5,305.5 Z"/></g>
<g><path style="opacity:0.024" fill="#a55620" d="M 523.5,305.5 C 519.939,309.973 515.939,313.973 511.5,317.5C 514.573,313.583 517.906,309.75 521.5,306C 522.094,305.536 522.761,305.369 523.5,305.5 Z"/></g>
<g><path style="opacity:0.09" fill="#9c6619" d="M 327.5,307.5 C 326.833,308.833 325.833,309.833 324.5,310.5C 324.5,308.5 325.5,307.5 327.5,307.5 Z"/></g>
<g><path style="opacity:0.118" fill="#ad571b" d="M 868.5,307.5 C 882.287,311.484 895.954,315.984 909.5,321C 910.056,321.383 910.389,321.883 910.5,322.5C 896.228,318.02 882.228,313.02 868.5,307.5 Z"/></g>
<g><path style="opacity:0.161" fill="#a7591b" d="M 545.5,312.5 C 537.694,316.111 530.028,320.111 522.5,324.5C 524.475,321.654 527.141,319.487 530.5,318C 535.083,315.042 540.083,313.209 545.5,312.5 Z"/></g>
<g><path style="opacity:0.125" fill="#a65918" d="M 324.5,310.5 C 320.833,314.833 316.833,318.833 312.5,322.5C 315.5,317.5 319.5,313.5 324.5,310.5 Z"/></g>
<g><path style="opacity:0.004" fill="#d0480b" d="M 511.5,317.5 C 511.5,318.833 510.833,319.5 509.5,319.5C 509.833,318.5 510.5,317.833 511.5,317.5 Z"/></g>
<g><path style="opacity:0.078" fill="#ae5016" d="M 910.5,322.5 C 912.898,322.259 914.898,322.926 916.5,324.5C 914.214,324.405 912.214,323.738 910.5,322.5 Z"/></g>
<g><path style="opacity:0.047" fill="#bd4f10" d="M 312.5,322.5 C 312.167,323.5 311.5,324.167 310.5,324.5C 310.5,323.167 311.167,322.5 312.5,322.5 Z"/></g>
<g><path style="opacity:0.004" fill="#c7510d" d="M 506.5,322.5 C 506.167,324.833 504.833,326.167 502.5,326.5C 503.5,324.833 504.833,323.5 506.5,322.5 Z"/></g>
<g><path style="opacity:0.075" fill="#ac531c" d="M 916.5,324.5 C 919.716,324.345 922.383,325.345 924.5,327.5C 921.603,326.871 918.936,325.871 916.5,324.5 Z"/></g>
<g><path style="opacity:0.141" fill="#a25920" d="M 310.5,324.5 C 310.262,326.404 309.262,327.738 307.5,328.5C 307.738,326.596 308.738,325.262 310.5,324.5 Z"/></g>
<g><path style="opacity:0.188" fill="#a9581c" d="M 522.5,324.5 C 521.101,325.89 519.434,326.89 517.5,327.5C 518.3,325.259 519.966,324.259 522.5,324.5 Z"/></g>
<g><path style="opacity:0.184" fill="#a6591f" d="M 517.5,327.5 C 515.704,329.9 513.37,331.567 510.5,332.5C 512.296,330.1 514.63,328.433 517.5,327.5 Z"/></g>
<g><path style="opacity:0.114" fill="#ae541b" d="M 924.5,327.5 C 933.436,329.149 941.769,332.149 949.5,336.5C 940.992,333.735 932.659,330.735 924.5,327.5 Z"/></g>
<g><path style="opacity:0.016" fill="#ab5610" d="M 500.5,328.5 C 498.906,331.764 496.573,334.431 493.5,336.5C 495.094,333.236 497.427,330.569 500.5,328.5 Z"/></g>
<g><path style="opacity:0.118" fill="#a9581b" d="M 307.5,328.5 C 305.413,332.344 303.08,336.011 300.5,339.5C 301.571,335.024 303.904,331.357 307.5,328.5 Z"/></g>
<g><path style="opacity:0.173" fill="#ad541e" d="M 510.5,332.5 C 509.421,334.543 507.754,335.876 505.5,336.5C 506.539,334.469 508.205,333.136 510.5,332.5 Z"/></g>
<g><path style="opacity:0.165" fill="#a6571c" d="M 949.5,336.5 C 952.992,336.446 955.992,337.446 958.5,339.5C 955.254,338.946 952.254,337.946 949.5,336.5 Z"/></g>
<g><path style="opacity:0.145" fill="#a45b1a" d="M 505.5,336.5 C 503.122,338.878 500.455,340.878 497.5,342.5C 499.313,339.353 501.98,337.353 505.5,336.5 Z"/></g>
<g><path style="opacity:0.012" fill="#ae5717" d="M 492.5,337.5 C 489.877,341.791 486.544,345.457 482.5,348.5C 485.152,344.183 488.485,340.516 492.5,337.5 Z"/></g>
<g><path style="opacity:0.176" fill="#a9561c" d="M 497.5,342.5 C 494.905,346.126 491.572,348.792 487.5,350.5C 490.46,347.355 493.793,344.688 497.5,342.5 Z"/></g>
<g><path style="opacity:0.125" fill="#a75719" d="M 958.5,339.5 C 964.494,341.164 970.494,342.831 976.5,344.5C 976.5,346.167 976.5,347.833 976.5,349.5C 967.895,351.818 959.228,353.818 950.5,355.5C 958.618,352.718 966.951,350.385 975.5,348.5C 975.5,347.5 975.5,346.5 975.5,345.5C 969.485,344.254 963.818,342.254 958.5,339.5 Z"/></g>
<g><path style="opacity:0.053" fill="#b5521a" d="M 950.5,355.5 C 943.453,359.189 935.786,361.522 927.5,362.5C 934.945,359.718 942.611,357.385 950.5,355.5 Z"/></g>
<g><path style="opacity:0.059" fill="#b15219" d="M 300.5,339.5 C 294.832,350.17 289.165,360.836 283.5,371.5C 287.129,361.453 291.629,351.786 297,342.5C 297.759,340.937 298.926,339.937 300.5,339.5 Z"/></g>
<g><path style="opacity:0.043" fill="#a6591a" d="M 482.5,348.5 C 479.404,352.773 476.07,356.94 472.5,361C 473.167,361.667 473.833,361.667 474.5,361C 478.379,357.575 482.379,354.409 486.5,351.5C 481.488,356.51 476.155,361.177 470.5,365.5C 467.312,368.368 464.145,371.368 461,374.5C 466.744,364.898 473.911,356.231 482.5,348.5 Z"/></g>
<g><path style="opacity:0.122" fill="#ad551c" d="M 927.5,362.5 C 927.389,363.117 927.056,363.617 926.5,364C 916.132,366.859 905.799,369.693 895.5,372.5C 905.775,368.258 916.442,364.925 927.5,362.5 Z"/></g>
<g><path style="opacity:0.11" fill="#af5418" d="M 894.5,372.5 C 894.389,373.117 894.056,373.617 893.5,374C 884.698,376.881 876.031,379.881 867.5,383C 864.522,383.696 861.522,384.196 858.5,384.5C 870.207,379.9 882.207,375.9 894.5,372.5 Z"/></g>
<g><path style="opacity:0.071" fill="#b35117" d="M 857.5,384.5 C 855.879,386.117 853.879,387.284 851.5,388C 846.988,389.795 842.321,390.961 837.5,391.5C 843.941,388.796 850.608,386.463 857.5,384.5 Z"/></g>
<g><path style="opacity:0.086" fill="#ac5820" d="M 837.5,391.5 C 835.758,392.957 833.758,394.124 831.5,395C 829.866,395.494 828.199,395.66 826.5,395.5C 829.797,393.399 833.463,392.065 837.5,391.5 Z"/></g>
<g><path style="opacity:0.133" fill="#ad521c" d="M 822.5,396.5 C 818.637,399.98 813.971,401.647 808.5,401.5C 813.081,399.86 817.748,398.193 822.5,396.5 Z"/></g>
<g><path style="opacity:0.208" fill="#bf642b" d="M 283.5,371.5 C 279.575,380.769 275.742,390.102 272,399.5C 258.196,409.641 244.363,419.641 230.5,429.5C 231.625,427.871 232.959,426.371 234.5,425C 246.755,416.289 258.922,407.456 271,398.5C 274.333,388.947 278.5,379.947 283.5,371.5 Z"/></g>
<g><path style="opacity:0.09" fill="#a45d16" d="M 808.5,401.5 C 807.365,403.213 805.698,403.88 803.5,403.5C 804.93,402.463 806.597,401.796 808.5,401.5 Z"/></g>
<g><path style="opacity:0.11" fill="#b05317" d="M 803.5,403.5 C 797.347,406.474 791.014,409.308 784.5,412C 781.883,412.822 779.216,413.322 776.5,413.5C 785.128,409.399 794.128,406.066 803.5,403.5 Z"/></g>
<g><path style="opacity:0.047" fill="#af5416" d="M 776.5,413.5 C 774.9,414.644 773.233,415.811 771.5,417C 763.106,419.875 754.772,422.708 746.5,425.5C 756.197,420.93 766.197,416.93 776.5,413.5 Z"/></g>
<g><path style="opacity:0.075" fill="#af541c" d="M 746.5,425.5 C 743.262,428.662 739.262,430.328 734.5,430.5C 738.203,428.321 742.203,426.655 746.5,425.5 Z"/></g>
<g><path style="opacity:0.043" fill="#b25417" d="M 733.5,430.5 C 731.314,432.823 728.647,434.657 725.5,436C 714.706,440.231 704.039,444.731 693.5,449.5C 706.526,442.655 719.859,436.322 733.5,430.5 Z"/></g>
<g><path style="opacity:0.227" fill="#c36832" d="M 230.5,429.5 C 221.756,437.238 212.423,444.238 202.5,450.5C 202.414,449.504 202.748,448.671 203.5,448C 212.066,442.769 220.066,436.769 227.5,430C 228.448,429.517 229.448,429.351 230.5,429.5 Z"/></g>
<g><path style="opacity:0.024" fill="#a5591d" d="M 693.5,449.5 C 689.771,452.759 685.438,455.093 680.5,456.5C 684.347,453.407 688.68,451.074 693.5,449.5 Z"/></g>
<g><path style="opacity:0.059" fill="#c4692e" d="M 202.5,450.5 C 197.382,455.558 191.715,459.891 185.5,463.5C 190.308,458.024 195.974,453.69 202.5,450.5 Z"/></g>
<g><path style="opacity:0.055" fill="#a85921" d="M 680.5,456.5 C 676.232,459.309 671.898,462.143 667.5,465C 666.552,465.483 665.552,465.649 664.5,465.5C 669.177,461.491 674.511,458.491 680.5,456.5 Z"/></g>
<g><path style="opacity:0.012" fill="#a35c12" d="M 664.5,465.5 C 662.049,468.277 659.049,470.277 655.5,471.5C 657.975,468.759 660.975,466.759 664.5,465.5 Z"/></g>
<g><path style="opacity:0.02" fill="#b2531e" d="M 655.5,471.5 C 653.557,474.471 650.891,476.471 647.5,477.5C 649.8,475.016 652.467,473.016 655.5,471.5 Z"/></g>
<g><path style="opacity:0.024" fill="#a15e1f" d="M 647.5,477.5 C 646.089,479.914 644.089,481.581 641.5,482.5C 642.911,480.086 644.911,478.419 647.5,477.5 Z"/></g>
<g><path style="opacity:0.173" fill="#bd6a32" d="M 184.5,464.5 C 162.833,481.5 143.5,500.833 126.5,522.5C 127.684,519.139 129.517,516.139 132,513.5C 147.151,494.511 164.651,478.178 184.5,464.5 Z"/></g>
<g><path style="opacity:0.004" fill="#dd3b0c" d="M 640.5,483.5 C 640.573,485.027 639.906,486.027 638.5,486.5C 638.5,486.167 638.5,485.833 638.5,485.5C 638.833,484.5 639.5,483.833 640.5,483.5 Z"/></g>
<g><path style="opacity:0.008" fill="#91710e" d="M 638.5,485.5 C 638.5,485.833 638.5,486.167 638.5,486.5C 638.027,487.906 637.027,488.573 635.5,488.5C 636.167,487.167 637.167,486.167 638.5,485.5 Z"/></g>
<g><path style="opacity:0.012" fill="#ac5813" d="M 635.5,488.5 C 634.25,492.408 631.917,495.408 628.5,497.5C 630.482,494.19 632.815,491.19 635.5,488.5 Z"/></g>
<g><path style="opacity:0.035" fill="#b55314" d="M 628.5,497.5 C 626.612,501.606 624.446,505.606 622,509.5C 621.241,511.063 620.074,512.063 618.5,512.5C 621.102,506.947 624.436,501.947 628.5,497.5 Z"/></g>
<g><path style="opacity:0.071" fill="#a5591a" d="M 618.5,512.5 C 617.191,517.121 614.858,521.121 611.5,524.5C 613.332,520.164 615.665,516.164 618.5,512.5 Z"/></g>
<g><path style="opacity:0.035" fill="#b35319" d="M 611.5,524.5 C 611.509,526.308 611.009,527.975 610,529.5C 606.989,535.533 603.489,541.2 599.5,546.5C 602.949,538.778 606.949,531.444 611.5,524.5 Z"/></g>
<g><path style="opacity:0.035" fill="#9e5e1b" d="M 599.5,546.5 C 599.539,549.089 598.539,551.089 596.5,552.5C 596.992,550.181 597.992,548.181 599.5,546.5 Z"/></g>
<g><path style="opacity:0.165" fill="#bd6c32" d="M 126.5,522.5 C 109.123,545.926 93.7897,570.592 80.5,596.5C 86.8978,581.709 94.3978,567.375 103,553.5C 109.42,543.659 116.087,533.993 123,524.5C 123.816,523.177 124.983,522.511 126.5,522.5 Z"/></g>
<g><path style="opacity:0.012" fill="#a05b16" d="M 596.5,552.5 C 596.346,554.97 595.346,556.97 593.5,558.5C 593.654,556.03 594.654,554.03 596.5,552.5 Z"/></g>
<g><path style="opacity:0.169" fill="#bf6a32" d="M 209.5,569.5 C 209.167,569.5 208.833,569.5 208.5,569.5C 208.472,567.418 209.139,565.584 210.5,564C 206.106,561.237 201.439,560.904 196.5,563C 190.696,565.335 185.029,567.835 179.5,570.5C 186.49,565.013 194.49,561.679 203.5,560.5C 211.268,559.912 213.268,562.912 209.5,569.5 Z"/></g>
<g><path style="opacity:0.098" fill="#a85715" d="M 593.5,558.5 C 592.524,563.118 590.524,567.118 587.5,570.5C 588.977,566.213 590.977,562.213 593.5,558.5 Z"/></g>
<g><path style="opacity:0.043" fill="#b97430" d="M 179.5,570.5 C 176.794,573.521 173.461,575.521 169.5,576.5C 172.494,574 175.827,572 179.5,570.5 Z"/></g>
<g><path style="opacity:0.063" fill="#f1217a" d="M 208.5,569.5 C 208.833,569.5 209.167,569.5 209.5,569.5C 208.299,571.909 206.633,573.909 204.5,575.5C 205.34,573.147 206.674,571.147 208.5,569.5 Z"/></g>
<g><path style="opacity:0.051" fill="#c7682c" d="M 169.5,576.5 C 166.931,579.728 163.598,581.728 159.5,582.5C 162.494,580 165.827,578 169.5,576.5 Z"/></g>
<g><path style="opacity:0.129" fill="#a55a1a" d="M 587.5,570.5 C 586.633,573.908 585.467,577.242 584,580.5C 582.324,584.527 580.158,588.194 577.5,591.5C 580.051,584.067 583.385,577.067 587.5,570.5 Z"/></g>
<g><path style="opacity:0.047" fill="#cb622b" d="M 159.5,582.5 C 157.797,585.632 155.13,587.299 151.5,587.5C 153.822,585.336 156.489,583.669 159.5,582.5 Z"/></g>
<g><path style="opacity:0.098" fill="#be6c30" d="M 151.5,587.5 C 147.017,591.137 142.35,594.637 137.5,598C 135.975,599.009 134.308,599.509 132.5,599.5C 138.319,594.753 144.652,590.753 151.5,587.5 Z"/></g>
<g><path style="opacity:0.051" fill="#f31d73" d="M 204.5,575.5 C 192.225,593.049 179.225,610.049 165.5,626.5C 170.087,619.398 174.921,612.398 180,605.5C 187.965,595.176 196.132,585.176 204.5,575.5 Z"/></g>
<g><path style="opacity:0.047" fill="#bb6c32" d="M 80.5,596.5 C 77.0117,606.134 73.0117,615.467 68.5,624.5C 68.969,620.263 70.1357,616.263 72,612.5C 74.565,606.926 77.3983,601.593 80.5,596.5 Z"/></g>
<g><path style="opacity:0.031" fill="#b15617" d="M 577.5,591.5 C 576.473,597.311 574.14,602.311 570.5,606.5C 572.597,601.311 574.93,596.311 577.5,591.5 Z"/></g>
<g><path style="opacity:0.167" fill="#c2662e" d="M 295.5,623.5 C 294.206,622.71 293.039,621.71 292,620.5C 290.139,617.431 288.306,614.431 286.5,611.5C 280.528,615.32 274.195,618.32 267.5,620.5C 273.555,616.802 279.888,613.469 286.5,610.5C 290.196,614.182 293.196,618.515 295.5,623.5 Z"/></g>
<g><path style="opacity:0.055" fill="#aa561a" d="M 570.5,606.5 C 569.195,611.942 567.195,617.109 564.5,622C 577.595,626.047 590.595,630.38 603.5,635C 605.879,635.716 607.879,636.883 609.5,638.5C 594.146,633.486 578.813,628.486 563.5,623.5C 565.255,617.561 567.588,611.894 570.5,606.5 Z"/></g>
<g><path style="opacity:0.043" fill="#c16e31" d="M 267.5,620.5 C 262.542,624.477 256.875,627.144 250.5,628.5C 256.008,625.581 261.674,622.914 267.5,620.5 Z"/></g>
<g><path style="opacity:0.051" fill="#c3682b" d="M 132.5,599.5 C 114.966,612.53 99.1324,627.53 85,644.5C 82.2839,647.717 79.1173,650.384 75.5,652.5C 86.628,640.203 97.9614,628.036 109.5,616C 116.506,609.481 124.173,603.981 132.5,599.5 Z"/></g>
<g><path style="opacity:0.122" fill="#f21e6d" d="M 165.5,626.5 C 159.306,635.566 152.64,644.233 145.5,652.5C 145.5,652.167 145.5,651.833 145.5,651.5C 151.491,642.522 158.158,634.188 165.5,626.5 Z"/></g>
<g><path style="opacity:0.075" fill="#c1692f" d="M 250.5,628.5 C 250.631,629.376 250.298,630.043 249.5,630.5C 235.523,636.822 221.857,643.655 208.5,651C 205.242,652.467 201.908,653.633 198.5,654.5C 215.609,645.279 232.942,636.612 250.5,628.5 Z"/></g>
<g><path style="opacity:0.09" fill="#ac591b" d="M 609.5,638.5 C 612.568,638.547 615.568,639.047 618.5,640C 626.737,643.147 635.07,646.147 643.5,649C 644.056,649.383 644.389,649.883 644.5,650.5C 632.575,646.944 620.908,642.944 609.5,638.5 Z"/></g>
<g><path style="opacity:0.169" fill="#c06c2f" d="M 295.5,623.5 C 308.031,639.372 321.698,654.372 336.5,668.5C 333.062,666.241 329.729,663.741 326.5,661C 316.009,650.503 306.176,639.336 297,627.5C 296.209,626.255 295.709,624.922 295.5,623.5 Z"/></g>
<g><path style="opacity:0.133" fill="#bd6a33" d="M 68.5,624.5 C 65.071,635.463 61.071,646.129 56.5,656.5C 56.3398,654.801 56.5065,653.134 57,651.5C 60.1819,642.09 64.0152,633.09 68.5,624.5 Z"/></g>
<g><path style="opacity:0.043" fill="#c5682c" d="M 198.5,654.5 C 197.089,656.539 195.089,657.539 192.5,657.5C 194.181,655.992 196.181,654.992 198.5,654.5 Z"/></g>
<g><path style="opacity:0.035" fill="#c16b33" d="M 75.5,652.5 C 70.9393,659.733 65.2726,666.066 58.5,671.5C 63.8024,664.863 69.4691,658.53 75.5,652.5 Z"/></g>
<g><path style="opacity:0.216" fill="#be6f30" d="M 56.5,656.5 C 55.6299,661.224 53.9632,665.557 51.5,669.5C 51.8242,664.539 53.4909,660.206 56.5,656.5 Z"/></g>
<g><path style="opacity:0.129" fill="#aa571a" d="M 644.5,650.5 C 648.803,650.741 652.803,651.908 656.5,654C 668.641,661.169 680.974,667.835 693.5,674C 695.093,674.949 696.426,676.115 697.5,677.5C 679.95,668.225 662.284,659.225 644.5,650.5 Z"/></g>
<g><path style="opacity:0.02" fill="#bf6a33" d="M 192.5,657.5 C 178.459,665.465 164.126,672.965 149.5,680C 148.207,680.49 146.873,680.657 145.5,680.5C 160.853,671.989 176.519,664.323 192.5,657.5 Z"/></g>
<g><path style="opacity:0.016" fill="#c36f35" d="M 336.5,668.5 C 340.798,671.463 344.798,674.797 348.5,678.5C 343.593,676.26 339.593,672.927 336.5,668.5 Z"/></g>
<g><path style="opacity:0.11" fill="#ba6a2c" d="M 51.5,669.5 C 50.4525,672.789 49.9525,676.122 50,679.5C 52.6765,676.657 55.5099,673.99 58.5,671.5C 56.9128,674.268 55.0795,676.935 53,679.5C 51.8904,681.037 50.3904,681.703 48.5,681.5C 48.335,678.15 48.5017,674.817 49,671.5C 49.7083,670.619 50.5416,669.953 51.5,669.5 Z"/></g>
<g><path style="opacity:0.188" fill="#a75b1e" d="M 697.5,677.5 C 703.143,679.041 708.143,681.708 712.5,685.5C 707.059,683.613 702.059,680.947 697.5,677.5 Z"/></g>
<g><path style="opacity:0.043" fill="#c66728" d="M 145.5,680.5 C 144.313,682.975 142.313,683.975 139.5,683.5C 141.181,681.992 143.181,680.992 145.5,680.5 Z"/></g>
<g><path style="opacity:0.047" fill="#c6682b" d="M 139.5,683.5 C 138.089,685.539 136.089,686.539 133.5,686.5C 135.181,684.992 137.181,683.992 139.5,683.5 Z"/></g>
<g><path style="opacity:0.196" fill="#bf6a2f" d="M 145.5,651.5 C 145.5,651.833 145.5,652.167 145.5,652.5C 130.477,668.187 114.477,682.854 97.5,696.5C 97.5106,694.983 98.1772,693.816 99.5,693C 115.353,679.642 130.686,665.809 145.5,651.5 Z"/></g>
<g><path style="opacity:0.188" fill="#c5672e" d="M 348.5,678.5 C 355.563,683.025 362.229,688.025 368.5,693.5C 365.91,692.872 363.577,691.705 361.5,690C 356.928,686.25 352.594,682.417 348.5,678.5 Z"/></g>
<g><path style="opacity:0.016" fill="#be6a31" d="M 712.5,685.5 C 715.073,686.219 717.573,687.219 720,688.5C 720.72,690.112 720.554,691.612 719.5,693C 707.978,697.66 696.978,703.16 686.5,709.5C 684.5,709.833 682.5,710.167 680.5,710.5C 692.556,703.805 704.889,697.639 717.5,692C 718.451,691.282 718.617,690.449 718,689.5C 715.985,688.303 714.151,686.97 712.5,685.5 Z"/></g>
<g><path style="opacity:0.161" fill="#ba6e37" d="M 97.5,696.5 C 96.0892,698.914 94.0892,700.581 91.5,701.5C 92.9108,699.086 94.9108,697.419 97.5,696.5 Z"/></g>
<g><path style="opacity:0.143" fill="#be6b30" d="M 133.5,686.5 C 118.774,694.596 103.774,702.429 88.5,710C 86.8659,710.494 85.1992,710.66 83.5,710.5C 83.3433,709.127 83.51,707.793 84,706.5C 86.3996,704.585 88.8996,702.919 91.5,701.5C 90.2073,703.296 88.7073,704.963 87,706.5C 86.3123,707.332 86.479,707.998 87.5,708.5C 102.705,700.562 118.038,693.228 133.5,686.5 Z"/></g>
<g><path style="opacity:0.212" fill="#be6b34" d="M 368.5,693.5 C 379.444,700.311 390.444,707.145 401.5,714C 411.309,719.202 421.309,723.702 431.5,727.5C 428.729,727.579 426.063,727.079 423.5,726C 403.762,717.404 385.429,706.57 368.5,693.5 Z"/></g>
<g><path style="opacity:0.125" fill="#954a10" d="M 709.5,711.5 C 702.917,709.886 696.251,709.386 689.5,710C 684.043,713.625 679.043,717.791 674.5,722.5C 677.799,717.534 681.799,713.201 686.5,709.5C 693.835,708.189 701.168,708.356 708.5,710C 709.056,710.383 709.389,710.883 709.5,711.5 Z"/></g>
<g><path style="opacity:0.078" fill="#934f14" d="M 709.5,711.5 C 711.527,711.338 713.527,711.505 715.5,712C 716.056,712.383 716.389,712.883 716.5,713.5C 713.933,713.279 711.599,712.612 709.5,711.5 Z"/></g>
<g><path style="opacity:0.106" fill="#c16c32" d="M 680.5,710.5 C 674.833,713.833 669.167,717.167 663.5,720.5C 662.226,719.811 662.226,718.977 663.5,718C 669.149,715.397 674.816,712.897 680.5,710.5 Z"/></g>
<g><path style="opacity:0.016" fill="#89490a" d="M 716.5,713.5 C 717.5,713.5 718.5,713.5 719.5,713.5C 719.337,718 717.004,720.666 712.5,721.5C 714.467,719.507 716.467,717.507 718.5,715.5C 717.757,714.818 717.091,714.151 716.5,713.5 Z"/></g>
<g><path style="opacity:0.082" fill="#aa4d13" d="M 663.5,720.5 C 665.796,722.401 667.629,724.734 669,727.5C 670.371,725.959 671.871,724.625 673.5,723.5C 672.627,725.886 671.127,727.886 669,729.5C 666.642,726.778 664.809,723.778 663.5,720.5 Z"/></g>
<g><path style="opacity:0.012" fill="#a3510d" d="M 709.5,723.5 C 705.413,727.922 700.746,731.589 695.5,734.5C 699.587,730.078 704.254,726.411 709.5,723.5 Z"/></g>
<g><path style="opacity:0.043" fill="#c06d33" d="M 431.5,727.5 C 449.759,732.377 468.093,736.377 486.5,739.5C 468.033,738.081 450.033,734.581 432.5,729C 431.944,728.617 431.611,728.117 431.5,727.5 Z"/></g>
<g><path style="opacity:0.027" fill="#985419" d="M 695.5,735.5 C 694.833,736.833 693.833,737.833 692.5,738.5C 692.5,736.5 693.5,735.5 695.5,735.5 Z"/></g>
<g><path style="opacity:0.155" fill="#be6c31" d="M 486.5,739.5 C 503.627,741.359 520.627,743.026 537.5,744.5C 533.167,744.5 528.833,744.5 524.5,744.5C 512.453,743.868 500.453,742.701 488.5,741C 487.584,740.722 486.918,740.222 486.5,739.5 Z"/></g>
<g><path style="opacity:0.02" fill="#ac3806" d="M 692.5,738.5 C 692.573,740.027 691.906,741.027 690.5,741.5C 690.427,739.973 691.094,738.973 692.5,738.5 Z"/></g>
<g><path style="opacity:0.122" fill="#a85819" d="M 762.5,742.5 C 756.014,739.711 749.681,740.045 743.5,743.5C 749.634,737.463 755.967,737.129 762.5,742.5 Z"/></g>
<g><path style="opacity:0.133" fill="#a6591b" d="M 743.5,743.5 C 741.664,745.588 739.331,746.921 736.5,747.5C 738.34,745.331 740.674,743.998 743.5,743.5 Z"/></g>
<g><path style="opacity:0.039" fill="#b04312" d="M 688.5,744.5 C 688.88,746.698 688.213,748.365 686.5,749.5C 686.402,747.447 687.069,745.78 688.5,744.5 Z"/></g>
<g><path style="opacity:0.024" fill="#af531e" d="M 762.5,742.5 C 766.095,742.976 769.428,744.142 772.5,746C 773.71,747.039 774.71,748.206 775.5,749.5C 770.968,747.403 766.635,745.069 762.5,742.5 Z"/></g>
<g><path style="opacity:0.035" fill="#bf5018" d="M 524.5,744.5 C 528.833,744.5 533.167,744.5 537.5,744.5C 541.846,744.334 546.179,744.501 550.5,745C 553.02,746.697 555.353,748.53 557.5,750.5C 554.484,749.657 551.817,748.157 549.5,746C 540.99,745.829 532.657,745.329 524.5,744.5 Z"/></g>
<g><path style="opacity:0.118" fill="#9a5514" d="M 557.5,750.5 C 561.025,751.759 564.025,753.759 566.5,756.5C 562.951,755.277 559.951,753.277 557.5,750.5 Z"/></g>
<g><path style="opacity:0.051" fill="#a6531c" d="M 775.5,749.5 C 779.935,749.752 781.268,751.919 779.5,756C 777.866,756.494 776.199,756.66 774.5,756.5C 780.696,755.094 781.029,752.761 775.5,749.5 Z"/></g>
<g><path style="opacity:0.051" fill="#ae5619" d="M 686.5,749.5 C 687.625,751.129 688.959,752.629 690.5,754C 694.977,755.917 699.311,757.75 703.5,759.5C 696.798,758.658 690.965,755.992 686,751.5C 685.308,750.563 685.475,749.897 686.5,749.5 Z"/></g>
<g><path style="opacity:0.192" fill="#aa551b" d="M 736.5,747.5 C 731.123,752.21 725.457,756.543 719.5,760.5C 724.283,755.055 729.95,750.722 736.5,747.5 Z"/></g>
<g><path style="opacity:0.082" fill="#8c6010" d="M 566.5,756.5 C 568.027,756.427 569.027,757.094 569.5,758.5C 567.973,758.573 566.973,757.906 566.5,756.5 Z"/></g>
<g><path style="opacity:0.078" fill="#ae5b15" d="M 774.5,756.5 C 773.365,758.213 771.698,758.88 769.5,758.5C 770.93,757.463 772.597,756.796 774.5,756.5 Z"/></g>
<g><path style="opacity:0.055" fill="#9f4b0f" d="M 569.5,758.5 C 572.511,759.669 575.178,761.336 577.5,763.5C 574.151,762.831 571.484,761.164 569.5,758.5 Z"/></g>
<g><path style="opacity:0.102" fill="#b65219" d="M 769.5,758.5 C 766.691,760.897 763.358,762.23 759.5,762.5C 762.53,760.597 765.863,759.263 769.5,758.5 Z"/></g>
<g><path style="opacity:0.122" fill="#aa5b1b" d="M 703.5,759.5 C 707.723,759.787 711.89,760.454 716,761.5C 717.138,761.011 718.305,760.678 719.5,760.5C 718.855,761.812 717.855,762.812 716.5,763.5C 711.974,762.407 707.641,761.073 703.5,759.5 Z"/></g>
<g><path style="opacity:0.129" fill="#934d14" d="M 577.5,763.5 C 580.76,764.774 583.76,766.44 586.5,768.5C 582.756,768.072 579.756,766.405 577.5,763.5 Z"/></g>
<g><path style="opacity:0.157" fill="#8c4d1c" d="M 586.5,768.5 C 588.027,768.427 589.027,769.094 589.5,770.5C 587.973,770.573 586.973,769.906 586.5,768.5 Z"/></g>
<g><path style="opacity:0.035" fill="#9b5012" d="M 589.5,770.5 C 593.151,771.659 596.485,773.326 599.5,775.5C 595.58,774.873 592.247,773.207 589.5,770.5 Z"/></g>
<g><path style="opacity:0.012" fill="#ad5216" d="M 756.5,763.5 C 750.276,767.381 744.609,772.048 739.5,777.5C 743.345,770.658 749.012,765.991 756.5,763.5 Z"/></g>
<g><path style="opacity:0.024" fill="#a25318" d="M 662.5,775.5 C 658.542,774.55 654.542,774.55 650.5,775.5C 652.933,774.587 655.433,773.587 658,772.5C 659.878,773.053 661.378,774.053 662.5,775.5 Z"/></g>
<g><path style="opacity:0.082" fill="#8f5118" d="M 599.5,775.5 C 601.153,775.66 602.486,776.326 603.5,777.5C 601.62,777.771 600.287,777.104 599.5,775.5 Z"/></g>
<g><path style="opacity:0.067" fill="#885114" d="M 650.5,775.5 C 648.562,777.163 646.228,777.829 643.5,777.5C 645.515,776.076 647.848,775.41 650.5,775.5 Z"/></g>
<g><path style="opacity:0.016" fill="#894f10" d="M 603.5,777.5 C 605.403,777.796 607.07,778.463 608.5,779.5C 606.302,779.88 604.635,779.213 603.5,777.5 Z"/></g>
<g><path style="opacity:0.02" fill="#99460a" d="M 643.5,777.5 C 643.389,778.117 643.056,778.617 642.5,779C 639.854,779.497 637.187,779.664 634.5,779.5C 637.311,778.525 640.311,777.858 643.5,777.5 Z"/></g>
<g><path style="opacity:0.086" fill="#b54e15" d="M 662.5,775.5 C 668.818,777.322 674.151,780.656 678.5,785.5C 677.448,785.649 676.448,785.483 675.5,785C 671.382,781.38 667.048,778.213 662.5,775.5 Z"/></g>
<g><path style="opacity:0.143" fill="#994d11" d="M 611.5,780.5 C 617.167,780.5 622.833,780.5 628.5,780.5C 622.822,783.086 617.156,783.086 611.5,780.5 Z"/></g>
<g><path style="opacity:0.059" fill="#85510e" d="M 708.5,787.5 C 707.01,789.28 705.01,789.946 702.5,789.5C 704.302,788.542 706.302,787.875 708.5,787.5 Z"/></g>
<g><path style="opacity:0.133" fill="#a45a1b" d="M 709.5,787.5 C 710.674,788.514 711.34,789.847 711.5,791.5C 709.896,790.713 709.229,789.38 709.5,787.5 Z"/></g>
<g><path style="opacity:0.016" fill="#924c08" d="M 678.5,786.5 C 686.083,790.526 694.083,791.526 702.5,789.5C 702.082,790.222 701.416,790.722 700.5,791C 695.5,791.667 690.5,791.667 685.5,791C 682.761,789.974 680.428,788.474 678.5,786.5 Z"/></g>
<g><path style="opacity:0.133" fill="#a9591a" d="M 739.5,777.5 C 738.508,780.779 738.341,784.112 739,787.5C 741.08,790.065 742.913,792.732 744.5,795.5C 737.02,790.771 735.354,784.771 739.5,777.5 Z"/></g>
<g><path style="opacity:0.188" fill="#a7561a" d="M 744.5,795.5 C 749.039,797.667 753.706,799.334 758.5,800.5C 752.865,801.18 748.199,799.513 744.5,795.5 Z"/></g>
<g><path style="opacity:0.059" fill="#ad5319" d="M 758.5,800.5 C 765.175,800.334 771.842,800.5 778.5,801C 779.479,802.779 779.146,804.445 777.5,806C 771.391,810.051 765.058,813.551 758.5,816.5C 765.156,812.501 771.489,808.001 777.5,803C 771.156,801.873 764.823,801.04 758.5,800.5 Z"/></g>
<g><path style="opacity:0.098" fill="#ae571a" d="M 711.5,791.5 C 715.943,800.737 721.61,809.07 728.5,816.5C 726.139,815.565 723.972,814.232 722,812.5C 717.405,805.977 713.905,798.977 711.5,791.5 Z"/></g>
<g><path style="opacity:0.192" fill="#a8561c" d="M 728.5,816.5 C 733.221,817.791 737.888,818.791 742.5,819.5C 738.486,819.666 734.486,819.499 730.5,819C 729.619,818.292 728.953,817.458 728.5,816.5 Z"/></g>
<g><path style="opacity:0.106" fill="#a55b1f" d="M 758.5,816.5 C 758.196,817.15 757.863,817.817 757.5,818.5C 754.914,819.48 752.247,819.813 749.5,819.5C 752.443,818.633 755.443,817.633 758.5,816.5 Z"/></g>
</svg>
